<?xml version="1.0" encoding="utf-8" standalone="no"?>
<!DOCTYPE svg PUBLIC "-//W3C//DTD SVG 1.1//EN"
  "http://www.w3.org/Graphics/SVG/1.1/DTD/svg11.dtd">
<!-- Created with matplotlib (https://matplotlib.org/) -->
<svg height="648pt" version="1.1" viewBox="0 0 864 648" width="864pt" xmlns="http://www.w3.org/2000/svg" xmlns:xlink="http://www.w3.org/1999/xlink">
 <metadata>
  <rdf:RDF xmlns:cc="http://creativecommons.org/ns#" xmlns:dc="http://purl.org/dc/elements/1.1/" xmlns:rdf="http://www.w3.org/1999/02/22-rdf-syntax-ns#">
   <cc:Work>
    <dc:type rdf:resource="http://purl.org/dc/dcmitype/StillImage"/>
    <dc:date>2021-02-09T09:33:13.972593</dc:date>
    <dc:format>image/svg+xml</dc:format>
    <dc:creator>
     <cc:Agent>
      <dc:title>Matplotlib v3.3.3, https://matplotlib.org/</dc:title>
     </cc:Agent>
    </dc:creator>
   </cc:Work>
  </rdf:RDF>
 </metadata>
 <defs>
  <style type="text/css">*{stroke-linecap:butt;stroke-linejoin:round;}</style>
 </defs>
 <g id="figure_1">
  <g id="patch_1">
   <path d="M 0 648 
L 864 648 
L 864 0 
L 0 0 
z
" style="fill:#ffffff;"/>
  </g>
  <g id="axes_1">
   <g id="patch_2">
    <path d="M 108 567 
L 777.6 567 
L 777.6 77.76 
L 108 77.76 
z
" style="fill:#ffffff;"/>
   </g>
   <g id="patch_3">
    <path clip-path="url(#p965d8a3dae)" d="M 108 567 
L 112.464 567 
L 112.464 311.985585 
L 108 311.985585 
z
" style="fill:#1f77b4;"/>
   </g>
   <g id="patch_4">
    <path clip-path="url(#p965d8a3dae)" d="M 112.464 567 
L 116.928 567 
L 116.928 101.057143 
L 112.464 101.057143 
z
" style="fill:#1f77b4;"/>
   </g>
   <g id="patch_5">
    <path clip-path="url(#p965d8a3dae)" d="M 116.928 567 
L 121.392 567 
L 121.392 160.395123 
L 116.928 160.395123 
z
" style="fill:#1f77b4;"/>
   </g>
   <g id="patch_6">
    <path clip-path="url(#p965d8a3dae)" d="M 121.392 567 
L 125.856 567 
L 125.856 217.971178 
L 121.392 217.971178 
z
" style="fill:#1f77b4;"/>
   </g>
   <g id="patch_7">
    <path clip-path="url(#p965d8a3dae)" d="M 125.856 567 
L 130.32 567 
L 130.32 256.225502 
L 125.856 256.225502 
z
" style="fill:#1f77b4;"/>
   </g>
   <g id="patch_8">
    <path clip-path="url(#p965d8a3dae)" d="M 130.32 567 
L 134.784 567 
L 134.784 282.546293 
L 130.32 282.546293 
z
" style="fill:#1f77b4;"/>
   </g>
   <g id="patch_9">
    <path clip-path="url(#p965d8a3dae)" d="M 134.784 567 
L 139.248 567 
L 139.248 299.106232 
L 134.784 299.106232 
z
" style="fill:#1f77b4;"/>
   </g>
   <g id="patch_10">
    <path clip-path="url(#p965d8a3dae)" d="M 139.248 567 
L 143.712 567 
L 143.712 304.694671 
L 139.248 304.694671 
z
" style="fill:#1f77b4;"/>
   </g>
   <g id="patch_11">
    <path clip-path="url(#p965d8a3dae)" d="M 143.712 567 
L 148.176 567 
L 148.176 311.861277 
L 143.712 311.861277 
z
" style="fill:#1f77b4;"/>
   </g>
   <g id="patch_12">
    <path clip-path="url(#p965d8a3dae)" d="M 148.176 567 
L 152.64 567 
L 152.64 312.942213 
L 148.176 312.942213 
z
" style="fill:#1f77b4;"/>
   </g>
   <g id="patch_13">
    <path clip-path="url(#p965d8a3dae)" d="M 152.64 567 
L 157.104 567 
L 157.104 311.688327 
L 152.64 311.688327 
z
" style="fill:#1f77b4;"/>
   </g>
   <g id="patch_14">
    <path clip-path="url(#p965d8a3dae)" d="M 157.104 567 
L 161.568 567 
L 161.568 312.915189 
L 157.104 312.915189 
z
" style="fill:#1f77b4;"/>
   </g>
   <g id="patch_15">
    <path clip-path="url(#p965d8a3dae)" d="M 161.568 567 
L 166.032 567 
L 166.032 306.672784 
L 161.568 306.672784 
z
" style="fill:#1f77b4;"/>
   </g>
   <g id="patch_16">
    <path clip-path="url(#p965d8a3dae)" d="M 166.032 567 
L 170.496 567 
L 170.496 304.062324 
L 166.032 304.062324 
z
" style="fill:#1f77b4;"/>
   </g>
   <g id="patch_17">
    <path clip-path="url(#p965d8a3dae)" d="M 170.496 567 
L 174.96 567 
L 174.96 297.328093 
L 170.496 297.328093 
z
" style="fill:#1f77b4;"/>
   </g>
   <g id="patch_18">
    <path clip-path="url(#p965d8a3dae)" d="M 174.96 567 
L 179.424 567 
L 179.424 290.112845 
L 174.96 290.112845 
z
" style="fill:#1f77b4;"/>
   </g>
   <g id="patch_19">
    <path clip-path="url(#p965d8a3dae)" d="M 179.424 567 
L 183.888 567 
L 183.888 278.352262 
L 179.424 278.352262 
z
" style="fill:#1f77b4;"/>
   </g>
   <g id="patch_20">
    <path clip-path="url(#p965d8a3dae)" d="M 183.888 567 
L 188.352 567 
L 188.352 268.013109 
L 183.888 268.013109 
z
" style="fill:#1f77b4;"/>
   </g>
   <g id="patch_21">
    <path clip-path="url(#p965d8a3dae)" d="M 188.352 567 
L 192.816 567 
L 192.816 262.792188 
L 188.352 262.792188 
z
" style="fill:#1f77b4;"/>
   </g>
   <g id="patch_22">
    <path clip-path="url(#p965d8a3dae)" d="M 192.816 567 
L 197.28 567 
L 197.28 250.312782 
L 192.816 250.312782 
z
" style="fill:#1f77b4;"/>
   </g>
   <g id="patch_23">
    <path clip-path="url(#p965d8a3dae)" d="M 197.28 567 
L 201.744 567 
L 201.744 243.275889 
L 197.28 243.275889 
z
" style="fill:#1f77b4;"/>
   </g>
   <g id="patch_24">
    <path clip-path="url(#p965d8a3dae)" d="M 201.744 567 
L 206.208 567 
L 206.208 233.914984 
L 201.744 233.914984 
z
" style="fill:#1f77b4;"/>
   </g>
   <g id="patch_25">
    <path clip-path="url(#p965d8a3dae)" d="M 206.208 567 
L 210.672 567 
L 210.672 226.467335 
L 206.208 226.467335 
z
" style="fill:#1f77b4;"/>
   </g>
   <g id="patch_26">
    <path clip-path="url(#p965d8a3dae)" d="M 210.672 567 
L 215.136 567 
L 215.136 220.992394 
L 210.672 220.992394 
z
" style="fill:#1f77b4;"/>
   </g>
   <g id="patch_27">
    <path clip-path="url(#p965d8a3dae)" d="M 215.136 567 
L 219.6 567 
L 219.6 212.87997 
L 215.136 212.87997 
z
" style="fill:#1f77b4;"/>
   </g>
   <g id="patch_28">
    <path clip-path="url(#p965d8a3dae)" d="M 219.6 567 
L 224.064 567 
L 224.064 204.454074 
L 219.6 204.454074 
z
" style="fill:#1f77b4;"/>
   </g>
   <g id="patch_29">
    <path clip-path="url(#p965d8a3dae)" d="M 224.064 567 
L 228.528 567 
L 228.528 200.957246 
L 224.064 200.957246 
z
" style="fill:#1f77b4;"/>
   </g>
   <g id="patch_30">
    <path clip-path="url(#p965d8a3dae)" d="M 228.528 567 
L 232.992 567 
L 232.992 194.952646 
L 228.528 194.952646 
z
" style="fill:#1f77b4;"/>
   </g>
   <g id="patch_31">
    <path clip-path="url(#p965d8a3dae)" d="M 232.992 567 
L 237.456 567 
L 237.456 191.969263 
L 232.992 191.969263 
z
" style="fill:#1f77b4;"/>
   </g>
   <g id="patch_32">
    <path clip-path="url(#p965d8a3dae)" d="M 237.456 567 
L 241.92 567 
L 241.92 185.310698 
L 237.456 185.310698 
z
" style="fill:#1f77b4;"/>
   </g>
   <g id="patch_33">
    <path clip-path="url(#p965d8a3dae)" d="M 241.92 567 
L 246.384 567 
L 246.384 180.062753 
L 241.92 180.062753 
z
" style="fill:#1f77b4;"/>
   </g>
   <g id="patch_34">
    <path clip-path="url(#p965d8a3dae)" d="M 246.384 567 
L 250.848 567 
L 250.848 174.166248 
L 246.384 174.166248 
z
" style="fill:#1f77b4;"/>
   </g>
   <g id="patch_35">
    <path clip-path="url(#p965d8a3dae)" d="M 250.848 567 
L 255.312 567 
L 255.312 167.723869 
L 250.848 167.723869 
z
" style="fill:#1f77b4;"/>
   </g>
   <g id="patch_36">
    <path clip-path="url(#p965d8a3dae)" d="M 255.312 567 
L 259.776 567 
L 259.776 165.291763 
L 255.312 165.291763 
z
" style="fill:#1f77b4;"/>
   </g>
   <g id="patch_37">
    <path clip-path="url(#p965d8a3dae)" d="M 259.776 567 
L 264.24 567 
L 264.24 165.362024 
L 259.776 165.362024 
z
" style="fill:#1f77b4;"/>
   </g>
   <g id="patch_38">
    <path clip-path="url(#p965d8a3dae)" d="M 264.24 567 
L 268.704 567 
L 268.704 160.605906 
L 264.24 160.605906 
z
" style="fill:#1f77b4;"/>
   </g>
   <g id="patch_39">
    <path clip-path="url(#p965d8a3dae)" d="M 268.704 567 
L 273.168 567 
L 273.168 158.627793 
L 268.704 158.627793 
z
" style="fill:#1f77b4;"/>
   </g>
   <g id="patch_40">
    <path clip-path="url(#p965d8a3dae)" d="M 273.168 567 
L 277.632 567 
L 277.632 154.747233 
L 273.168 154.747233 
z
" style="fill:#1f77b4;"/>
   </g>
   <g id="patch_41">
    <path clip-path="url(#p965d8a3dae)" d="M 277.632 567 
L 282.096 567 
L 282.096 153.287969 
L 277.632 153.287969 
z
" style="fill:#1f77b4;"/>
   </g>
   <g id="patch_42">
    <path clip-path="url(#p965d8a3dae)" d="M 282.096 567 
L 286.56 567 
L 286.56 151.628732 
L 282.096 151.628732 
z
" style="fill:#1f77b4;"/>
   </g>
   <g id="patch_43">
    <path clip-path="url(#p965d8a3dae)" d="M 286.56 567 
L 291.024 567 
L 291.024 155.730885 
L 286.56 155.730885 
z
" style="fill:#1f77b4;"/>
   </g>
   <g id="patch_44">
    <path clip-path="url(#p965d8a3dae)" d="M 291.024 567 
L 295.488 567 
L 295.488 156.979366 
L 291.024 156.979366 
z
" style="fill:#1f77b4;"/>
   </g>
   <g id="patch_45">
    <path clip-path="url(#p965d8a3dae)" d="M 295.488 567 
L 299.952 567 
L 299.952 159.098 
L 295.488 159.098 
z
" style="fill:#1f77b4;"/>
   </g>
   <g id="patch_46">
    <path clip-path="url(#p965d8a3dae)" d="M 299.952 567 
L 304.416 567 
L 304.416 165.745756 
L 299.952 165.745756 
z
" style="fill:#1f77b4;"/>
   </g>
   <g id="patch_47">
    <path clip-path="url(#p965d8a3dae)" d="M 304.416 567 
L 308.88 567 
L 308.88 171.723332 
L 304.416 171.723332 
z
" style="fill:#1f77b4;"/>
   </g>
   <g id="patch_48">
    <path clip-path="url(#p965d8a3dae)" d="M 308.88 567 
L 313.344 567 
L 313.344 174.71212 
L 308.88 174.71212 
z
" style="fill:#1f77b4;"/>
   </g>
   <g id="patch_49">
    <path clip-path="url(#p965d8a3dae)" d="M 313.344 567 
L 317.808 567 
L 317.808 179.257456 
L 313.344 179.257456 
z
" style="fill:#1f77b4;"/>
   </g>
   <g id="patch_50">
    <path clip-path="url(#p965d8a3dae)" d="M 317.808 567 
L 322.272 567 
L 322.272 187.142884 
L 317.808 187.142884 
z
" style="fill:#1f77b4;"/>
   </g>
   <g id="patch_51">
    <path clip-path="url(#p965d8a3dae)" d="M 322.272 567 
L 326.736 567 
L 326.736 195.936298 
L 322.272 195.936298 
z
" style="fill:#1f77b4;"/>
   </g>
   <g id="patch_52">
    <path clip-path="url(#p965d8a3dae)" d="M 326.736 567 
L 331.2 567 
L 331.2 204.005485 
L 326.736 204.005485 
z
" style="fill:#1f77b4;"/>
   </g>
   <g id="patch_53">
    <path clip-path="url(#p965d8a3dae)" d="M 331.2 567 
L 335.664 567 
L 335.664 212.312478 
L 331.2 212.312478 
z
" style="fill:#1f77b4;"/>
   </g>
   <g id="patch_54">
    <path clip-path="url(#p965d8a3dae)" d="M 335.664 567 
L 340.128 567 
L 340.128 225.418827 
L 335.664 225.418827 
z
" style="fill:#1f77b4;"/>
   </g>
   <g id="patch_55">
    <path clip-path="url(#p965d8a3dae)" d="M 340.128 567 
L 344.592 567 
L 344.592 233.833913 
L 340.128 233.833913 
z
" style="fill:#1f77b4;"/>
   </g>
   <g id="patch_56">
    <path clip-path="url(#p965d8a3dae)" d="M 344.592 567 
L 349.056 567 
L 349.056 242.400331 
L 344.592 242.400331 
z
" style="fill:#1f77b4;"/>
   </g>
   <g id="patch_57">
    <path clip-path="url(#p965d8a3dae)" d="M 349.056 567 
L 353.52 567 
L 353.52 252.496273 
L 349.056 252.496273 
z
" style="fill:#1f77b4;"/>
   </g>
   <g id="patch_58">
    <path clip-path="url(#p965d8a3dae)" d="M 353.52 567 
L 357.984 567 
L 357.984 263.062422 
L 353.52 263.062422 
z
" style="fill:#1f77b4;"/>
   </g>
   <g id="patch_59">
    <path clip-path="url(#p965d8a3dae)" d="M 357.984 567 
L 362.448 567 
L 362.448 274.914885 
L 357.984 274.914885 
z
" style="fill:#1f77b4;"/>
   </g>
   <g id="patch_60">
    <path clip-path="url(#p965d8a3dae)" d="M 362.448 567 
L 366.912 567 
L 366.912 285.459416 
L 362.448 285.459416 
z
" style="fill:#1f77b4;"/>
   </g>
   <g id="patch_61">
    <path clip-path="url(#p965d8a3dae)" d="M 366.912 567 
L 371.376 567 
L 371.376 298.960306 
L 366.912 298.960306 
z
" style="fill:#1f77b4;"/>
   </g>
   <g id="patch_62">
    <path clip-path="url(#p965d8a3dae)" d="M 371.376 567 
L 375.84 567 
L 375.84 309.034629 
L 371.376 309.034629 
z
" style="fill:#1f77b4;"/>
   </g>
   <g id="patch_63">
    <path clip-path="url(#p965d8a3dae)" d="M 375.84 567 
L 380.304 567 
L 380.304 322.957085 
L 375.84 322.957085 
z
" style="fill:#1f77b4;"/>
   </g>
   <g id="patch_64">
    <path clip-path="url(#p965d8a3dae)" d="M 380.304 567 
L 384.768 567 
L 384.768 334.787929 
L 380.304 334.787929 
z
" style="fill:#1f77b4;"/>
   </g>
   <g id="patch_65">
    <path clip-path="url(#p965d8a3dae)" d="M 384.768 567 
L 389.232 567 
L 389.232 346.959268 
L 384.768 346.959268 
z
" style="fill:#1f77b4;"/>
   </g>
   <g id="patch_66">
    <path clip-path="url(#p965d8a3dae)" d="M 389.232 567 
L 393.696 567 
L 393.696 358.40638 
L 389.232 358.40638 
z
" style="fill:#1f77b4;"/>
   </g>
   <g id="patch_67">
    <path clip-path="url(#p965d8a3dae)" d="M 393.696 567 
L 398.16 567 
L 398.16 369.156288 
L 393.696 369.156288 
z
" style="fill:#1f77b4;"/>
   </g>
   <g id="patch_68">
    <path clip-path="url(#p965d8a3dae)" d="M 398.16 567 
L 402.624 567 
L 402.624 379.490036 
L 398.16 379.490036 
z
" style="fill:#1f77b4;"/>
   </g>
   <g id="patch_69">
    <path clip-path="url(#p965d8a3dae)" d="M 402.624 567 
L 407.088 567 
L 407.088 393.504371 
L 402.624 393.504371 
z
" style="fill:#1f77b4;"/>
   </g>
   <g id="patch_70">
    <path clip-path="url(#p965d8a3dae)" d="M 407.088 567 
L 411.552 567 
L 411.552 401.930267 
L 407.088 401.930267 
z
" style="fill:#1f77b4;"/>
   </g>
   <g id="patch_71">
    <path clip-path="url(#p965d8a3dae)" d="M 411.552 567 
L 416.016 567 
L 416.016 411.410076 
L 411.552 411.410076 
z
" style="fill:#1f77b4;"/>
   </g>
   <g id="patch_72">
    <path clip-path="url(#p965d8a3dae)" d="M 416.016 567 
L 420.48 567 
L 420.48 422.738285 
L 416.016 422.738285 
z
" style="fill:#1f77b4;"/>
   </g>
   <g id="patch_73">
    <path clip-path="url(#p965d8a3dae)" d="M 420.48 567 
L 424.944 567 
L 424.944 431.531699 
L 420.48 431.531699 
z
" style="fill:#1f77b4;"/>
   </g>
   <g id="patch_74">
    <path clip-path="url(#p965d8a3dae)" d="M 424.944 567 
L 429.408 567 
L 429.408 439.892739 
L 424.944 439.892739 
z
" style="fill:#1f77b4;"/>
   </g>
   <g id="patch_75">
    <path clip-path="url(#p965d8a3dae)" d="M 429.408 567 
L 433.872 567 
L 433.872 447.734929 
L 429.408 447.734929 
z
" style="fill:#1f77b4;"/>
   </g>
   <g id="patch_76">
    <path clip-path="url(#p965d8a3dae)" d="M 433.872 567 
L 438.336 567 
L 438.336 456.414845 
L 433.872 456.414845 
z
" style="fill:#1f77b4;"/>
   </g>
   <g id="patch_77">
    <path clip-path="url(#p965d8a3dae)" d="M 438.336 567 
L 442.8 567 
L 442.8 463.662521 
L 438.336 463.662521 
z
" style="fill:#1f77b4;"/>
   </g>
   <g id="patch_78">
    <path clip-path="url(#p965d8a3dae)" d="M 442.8 567 
L 447.264 567 
L 447.264 471.299333 
L 442.8 471.299333 
z
" style="fill:#1f77b4;"/>
   </g>
   <g id="patch_79">
    <path clip-path="url(#p965d8a3dae)" d="M 447.264 567 
L 451.728 567 
L 451.728 477.055317 
L 447.264 477.055317 
z
" style="fill:#1f77b4;"/>
   </g>
   <g id="patch_80">
    <path clip-path="url(#p965d8a3dae)" d="M 451.728 567 
L 456.192 567 
L 456.192 481.508774 
L 451.728 481.508774 
z
" style="fill:#1f77b4;"/>
   </g>
   <g id="patch_81">
    <path clip-path="url(#p965d8a3dae)" d="M 456.192 567 
L 460.656 567 
L 460.656 487.713346 
L 456.192 487.713346 
z
" style="fill:#1f77b4;"/>
   </g>
   <g id="patch_82">
    <path clip-path="url(#p965d8a3dae)" d="M 460.656 567 
L 465.12 567 
L 465.12 493.339618 
L 460.656 493.339618 
z
" style="fill:#1f77b4;"/>
   </g>
   <g id="patch_83">
    <path clip-path="url(#p965d8a3dae)" d="M 465.12 567 
L 469.584 567 
L 469.584 496.67971 
L 465.12 496.67971 
z
" style="fill:#1f77b4;"/>
   </g>
   <g id="patch_84">
    <path clip-path="url(#p965d8a3dae)" d="M 469.584 567 
L 474.048 567 
L 474.048 501.66823 
L 469.584 501.66823 
z
" style="fill:#1f77b4;"/>
   </g>
   <g id="patch_85">
    <path clip-path="url(#p965d8a3dae)" d="M 474.048 567 
L 478.512 567 
L 478.512 505.273151 
L 474.048 505.273151 
z
" style="fill:#1f77b4;"/>
   </g>
   <g id="patch_86">
    <path clip-path="url(#p965d8a3dae)" d="M 478.512 567 
L 482.976 567 
L 482.976 508.948333 
L 478.512 508.948333 
z
" style="fill:#1f77b4;"/>
   </g>
   <g id="patch_87">
    <path clip-path="url(#p965d8a3dae)" d="M 482.976 567 
L 487.44 567 
L 487.44 512.769442 
L 482.976 512.769442 
z
" style="fill:#1f77b4;"/>
   </g>
   <g id="patch_88">
    <path clip-path="url(#p965d8a3dae)" d="M 487.44 567 
L 491.904 567 
L 491.904 515.893347 
L 487.44 515.893347 
z
" style="fill:#1f77b4;"/>
   </g>
   <g id="patch_89">
    <path clip-path="url(#p965d8a3dae)" d="M 491.904 567 
L 496.368 567 
L 496.368 518.509212 
L 491.904 518.509212 
z
" style="fill:#1f77b4;"/>
   </g>
   <g id="patch_90">
    <path clip-path="url(#p965d8a3dae)" d="M 496.368 567 
L 500.832 567 
L 500.832 520.914295 
L 496.368 520.914295 
z
" style="fill:#1f77b4;"/>
   </g>
   <g id="patch_91">
    <path clip-path="url(#p965d8a3dae)" d="M 500.832 567 
L 505.296 567 
L 505.296 523.01131 
L 500.832 523.01131 
z
" style="fill:#1f77b4;"/>
   </g>
   <g id="patch_92">
    <path clip-path="url(#p965d8a3dae)" d="M 505.296 567 
L 509.76 567 
L 509.76 525.475844 
L 505.296 525.475844 
z
" style="fill:#1f77b4;"/>
   </g>
   <g id="patch_93">
    <path clip-path="url(#p965d8a3dae)" d="M 509.76 567 
L 514.224 567 
L 514.224 527.616098 
L 509.76 527.616098 
z
" style="fill:#1f77b4;"/>
   </g>
   <g id="patch_94">
    <path clip-path="url(#p965d8a3dae)" d="M 514.224 567 
L 518.688 567 
L 518.688 529.794184 
L 514.224 529.794184 
z
" style="fill:#1f77b4;"/>
   </g>
   <g id="patch_95">
    <path clip-path="url(#p965d8a3dae)" d="M 518.688 567 
L 523.152 567 
L 523.152 532.193862 
L 518.688 532.193862 
z
" style="fill:#1f77b4;"/>
   </g>
   <g id="patch_96">
    <path clip-path="url(#p965d8a3dae)" d="M 523.152 567 
L 527.616 567 
L 527.616 532.507333 
L 523.152 532.507333 
z
" style="fill:#1f77b4;"/>
   </g>
   <g id="patch_97">
    <path clip-path="url(#p965d8a3dae)" d="M 527.616 567 
L 532.08 567 
L 532.08 534.226021 
L 527.616 534.226021 
z
" style="fill:#1f77b4;"/>
   </g>
   <g id="patch_98">
    <path clip-path="url(#p965d8a3dae)" d="M 532.08 567 
L 536.544 567 
L 536.544 536.744602 
L 532.08 536.744602 
z
" style="fill:#1f77b4;"/>
   </g>
   <g id="patch_99">
    <path clip-path="url(#p965d8a3dae)" d="M 536.544 567 
L 541.008 567 
L 541.008 537.641779 
L 536.544 537.641779 
z
" style="fill:#1f77b4;"/>
   </g>
   <g id="patch_100">
    <path clip-path="url(#p965d8a3dae)" d="M 541.008 567 
L 545.472 567 
L 545.472 539.22535 
L 541.008 539.22535 
z
" style="fill:#1f77b4;"/>
   </g>
   <g id="patch_101">
    <path clip-path="url(#p965d8a3dae)" d="M 545.472 567 
L 549.936 567 
L 549.936 540.019838 
L 545.472 540.019838 
z
" style="fill:#1f77b4;"/>
   </g>
   <g id="patch_102">
    <path clip-path="url(#p965d8a3dae)" d="M 549.936 567 
L 554.4 567 
L 554.4 542.084426 
L 549.936 542.084426 
z
" style="fill:#1f77b4;"/>
   </g>
   <g id="patch_103">
    <path clip-path="url(#p965d8a3dae)" d="M 554.4 567 
L 558.864 567 
L 558.864 543.45181 
L 554.4 543.45181 
z
" style="fill:#1f77b4;"/>
   </g>
   <g id="patch_104">
    <path clip-path="url(#p965d8a3dae)" d="M 558.864 567 
L 563.328 567 
L 563.328 543.300479 
L 558.864 543.300479 
z
" style="fill:#1f77b4;"/>
   </g>
   <g id="patch_105">
    <path clip-path="url(#p965d8a3dae)" d="M 563.328 567 
L 567.792 567 
L 567.792 544.489508 
L 563.328 544.489508 
z
" style="fill:#1f77b4;"/>
   </g>
   <g id="patch_106">
    <path clip-path="url(#p965d8a3dae)" d="M 567.792 567 
L 572.256 567 
L 572.256 545.737989 
L 567.792 545.737989 
z
" style="fill:#1f77b4;"/>
   </g>
   <g id="patch_107">
    <path clip-path="url(#p965d8a3dae)" d="M 572.256 567 
L 576.72 567 
L 576.72 545.916344 
L 572.256 545.916344 
z
" style="fill:#1f77b4;"/>
   </g>
   <g id="patch_108">
    <path clip-path="url(#p965d8a3dae)" d="M 576.72 567 
L 581.184 567 
L 581.184 547.780958 
L 576.72 547.780958 
z
" style="fill:#1f77b4;"/>
   </g>
   <g id="patch_109">
    <path clip-path="url(#p965d8a3dae)" d="M 581.184 567 
L 585.648 567 
L 585.648 548.33764 
L 581.184 548.33764 
z
" style="fill:#1f77b4;"/>
   </g>
   <g id="patch_110">
    <path clip-path="url(#p965d8a3dae)" d="M 585.648 567 
L 590.112 567 
L 590.112 548.932155 
L 585.648 548.932155 
z
" style="fill:#1f77b4;"/>
   </g>
   <g id="patch_111">
    <path clip-path="url(#p965d8a3dae)" d="M 590.112 567 
L 594.576 567 
L 594.576 549.602335 
L 590.112 549.602335 
z
" style="fill:#1f77b4;"/>
   </g>
   <g id="patch_112">
    <path clip-path="url(#p965d8a3dae)" d="M 594.576 567 
L 599.04 567 
L 599.04 549.742857 
L 594.576 549.742857 
z
" style="fill:#1f77b4;"/>
   </g>
   <g id="patch_113">
    <path clip-path="url(#p965d8a3dae)" d="M 599.04 567 
L 603.504 567 
L 603.504 551.029171 
L 599.04 551.029171 
z
" style="fill:#1f77b4;"/>
   </g>
   <g id="patch_114">
    <path clip-path="url(#p965d8a3dae)" d="M 603.504 567 
L 607.968 567 
L 607.968 551.056194 
L 603.504 551.056194 
z
" style="fill:#1f77b4;"/>
   </g>
   <g id="patch_115">
    <path clip-path="url(#p965d8a3dae)" d="M 607.968 567 
L 612.432 567 
L 612.432 552.434388 
L 607.968 552.434388 
z
" style="fill:#1f77b4;"/>
   </g>
   <g id="patch_116">
    <path clip-path="url(#p965d8a3dae)" d="M 612.432 567 
L 616.896 567 
L 616.896 552.201986 
L 612.432 552.201986 
z
" style="fill:#1f77b4;"/>
   </g>
   <g id="patch_117">
    <path clip-path="url(#p965d8a3dae)" d="M 616.896 567 
L 621.36 567 
L 621.36 552.677598 
L 616.896 552.677598 
z
" style="fill:#1f77b4;"/>
   </g>
   <g id="patch_118">
    <path clip-path="url(#p965d8a3dae)" d="M 621.36 567 
L 625.824 567 
L 625.824 553.466682 
L 621.36 553.466682 
z
" style="fill:#1f77b4;"/>
   </g>
   <g id="patch_119">
    <path clip-path="url(#p965d8a3dae)" d="M 625.824 567 
L 630.288 567 
L 630.288 553.780153 
L 625.824 553.780153 
z
" style="fill:#1f77b4;"/>
   </g>
   <g id="patch_120">
    <path clip-path="url(#p965d8a3dae)" d="M 630.288 567 
L 634.752 567 
L 634.752 554.834066 
L 630.288 554.834066 
z
" style="fill:#1f77b4;"/>
   </g>
   <g id="patch_121">
    <path clip-path="url(#p965d8a3dae)" d="M 634.752 567 
L 639.216 567 
L 639.216 554.855684 
L 634.752 554.855684 
z
" style="fill:#1f77b4;"/>
   </g>
   <g id="patch_122">
    <path clip-path="url(#p965d8a3dae)" d="M 639.216 567 
L 643.68 567 
L 643.68 555.379938 
L 639.216 555.379938 
z
" style="fill:#1f77b4;"/>
   </g>
   <g id="patch_123">
    <path clip-path="url(#p965d8a3dae)" d="M 643.68 567 
L 648.144 567 
L 648.144 555.590721 
L 643.68 555.590721 
z
" style="fill:#1f77b4;"/>
   </g>
   <g id="patch_124">
    <path clip-path="url(#p965d8a3dae)" d="M 648.144 567 
L 652.608 567 
L 652.608 556.514921 
L 648.144 556.514921 
z
" style="fill:#1f77b4;"/>
   </g>
   <g id="patch_125">
    <path clip-path="url(#p965d8a3dae)" d="M 652.608 567 
L 657.072 567 
L 657.072 556.752727 
L 652.608 556.752727 
z
" style="fill:#1f77b4;"/>
   </g>
   <g id="patch_126">
    <path clip-path="url(#p965d8a3dae)" d="M 657.072 567 
L 661.536 567 
L 661.536 557.066198 
L 657.072 557.066198 
z
" style="fill:#1f77b4;"/>
   </g>
   <g id="patch_127">
    <path clip-path="url(#p965d8a3dae)" d="M 661.536 567 
L 666 567 
L 666 557.406693 
L 661.536 557.406693 
z
" style="fill:#1f77b4;"/>
   </g>
   <g id="patch_128">
    <path clip-path="url(#p965d8a3dae)" d="M 666 567 
L 670.464 567 
L 670.464 557.536406 
L 666 557.536406 
z
" style="fill:#1f77b4;"/>
   </g>
   <g id="patch_129">
    <path clip-path="url(#p965d8a3dae)" d="M 670.464 567 
L 674.928 567 
L 674.928 558.044445 
L 670.464 558.044445 
z
" style="fill:#1f77b4;"/>
   </g>
   <g id="patch_130">
    <path clip-path="url(#p965d8a3dae)" d="M 674.928 567 
L 679.392 567 
L 679.392 558.30387 
L 674.928 558.30387 
z
" style="fill:#1f77b4;"/>
   </g>
   <g id="patch_131">
    <path clip-path="url(#p965d8a3dae)" d="M 679.392 567 
L 683.856 567 
L 683.856 558.925408 
L 679.392 558.925408 
z
" style="fill:#1f77b4;"/>
   </g>
   <g id="patch_132">
    <path clip-path="url(#p965d8a3dae)" d="M 683.856 567 
L 688.32 567 
L 688.32 559.109167 
L 683.856 559.109167 
z
" style="fill:#1f77b4;"/>
   </g>
   <g id="patch_133">
    <path clip-path="url(#p965d8a3dae)" d="M 688.32 567 
L 692.784 567 
L 692.784 559.606398 
L 688.32 559.606398 
z
" style="fill:#1f77b4;"/>
   </g>
   <g id="patch_134">
    <path clip-path="url(#p965d8a3dae)" d="M 692.784 567 
L 697.248 567 
L 697.248 559.795562 
L 692.784 559.795562 
z
" style="fill:#1f77b4;"/>
   </g>
   <g id="patch_135">
    <path clip-path="url(#p965d8a3dae)" d="M 697.248 567 
L 701.712 567 
L 701.712 559.806371 
L 697.248 559.806371 
z
" style="fill:#1f77b4;"/>
   </g>
   <g id="patch_136">
    <path clip-path="url(#p965d8a3dae)" d="M 701.712 567 
L 706.176 567 
L 706.176 560.065796 
L 701.712 560.065796 
z
" style="fill:#1f77b4;"/>
   </g>
   <g id="patch_137">
    <path clip-path="url(#p965d8a3dae)" d="M 706.176 567 
L 710.64 567 
L 710.64 560.400886 
L 706.176 560.400886 
z
" style="fill:#1f77b4;"/>
   </g>
   <g id="patch_138">
    <path clip-path="url(#p965d8a3dae)" d="M 710.64 567 
L 715.104 567 
L 715.104 560.633287 
L 710.64 560.633287 
z
" style="fill:#1f77b4;"/>
   </g>
   <g id="patch_139">
    <path clip-path="url(#p965d8a3dae)" d="M 715.104 567 
L 719.568 567 
L 719.568 560.898116 
L 715.104 560.898116 
z
" style="fill:#1f77b4;"/>
   </g>
   <g id="patch_140">
    <path clip-path="url(#p965d8a3dae)" d="M 719.568 567 
L 724.032 567 
L 724.032 561.09809 
L 719.568 561.09809 
z
" style="fill:#1f77b4;"/>
   </g>
   <g id="patch_141">
    <path clip-path="url(#p965d8a3dae)" d="M 724.032 567 
L 728.496 567 
L 728.496 561.08728 
L 724.032 561.08728 
z
" style="fill:#1f77b4;"/>
   </g>
   <g id="patch_142">
    <path clip-path="url(#p965d8a3dae)" d="M 728.496 567 
L 732.96 567 
L 732.96 561.411561 
L 728.496 561.411561 
z
" style="fill:#1f77b4;"/>
   </g>
   <g id="patch_143">
    <path clip-path="url(#p965d8a3dae)" d="M 732.96 567 
L 737.424 567 
L 737.424 562.119574 
L 732.96 562.119574 
z
" style="fill:#1f77b4;"/>
   </g>
   <g id="patch_144">
    <path clip-path="url(#p965d8a3dae)" d="M 737.424 567 
L 741.888 567 
L 741.888 561.784484 
L 737.424 561.784484 
z
" style="fill:#1f77b4;"/>
   </g>
   <g id="patch_145">
    <path clip-path="url(#p965d8a3dae)" d="M 741.888 567 
L 746.352 567 
L 746.352 562.281714 
L 741.888 562.281714 
z
" style="fill:#1f77b4;"/>
   </g>
   <g id="patch_146">
    <path clip-path="url(#p965d8a3dae)" d="M 746.352 567 
L 750.816 567 
L 750.816 562.049313 
L 746.352 562.049313 
z
" style="fill:#1f77b4;"/>
   </g>
   <g id="patch_147">
    <path clip-path="url(#p965d8a3dae)" d="M 750.816 567 
L 755.28 567 
L 755.28 562.335761 
L 750.816 562.335761 
z
" style="fill:#1f77b4;"/>
   </g>
   <g id="patch_148">
    <path clip-path="url(#p965d8a3dae)" d="M 755.28 567 
L 759.744 567 
L 759.744 562.600591 
L 755.28 562.600591 
z
" style="fill:#1f77b4;"/>
   </g>
   <g id="patch_149">
    <path clip-path="url(#p965d8a3dae)" d="M 759.744 567 
L 764.208 567 
L 764.208 562.319547 
L 759.744 562.319547 
z
" style="fill:#1f77b4;"/>
   </g>
   <g id="patch_150">
    <path clip-path="url(#p965d8a3dae)" d="M 764.208 567 
L 768.672 567 
L 768.672 562.681661 
L 764.208 562.681661 
z
" style="fill:#1f77b4;"/>
   </g>
   <g id="patch_151">
    <path clip-path="url(#p965d8a3dae)" d="M 768.672 567 
L 773.136 567 
L 773.136 563.065393 
L 768.672 563.065393 
z
" style="fill:#1f77b4;"/>
   </g>
   <g id="patch_152">
    <path clip-path="url(#p965d8a3dae)" d="M 773.136 567 
L 777.6 567 
L 777.6 563.141059 
L 773.136 563.141059 
z
" style="fill:#1f77b4;"/>
   </g>
   <g id="patch_153">
    <path clip-path="url(#p965d8a3dae)" d="M 777.6 567 
L 782.064 567 
L 782.064 563.259962 
L 777.6 563.259962 
z
" style="fill:#1f77b4;"/>
   </g>
   <g id="patch_154">
    <path clip-path="url(#p965d8a3dae)" d="M 782.064 567 
L 786.528 567 
L 786.528 563.351841 
L 782.064 563.351841 
z
" style="fill:#1f77b4;"/>
   </g>
   <g id="patch_155">
    <path clip-path="url(#p965d8a3dae)" d="M 786.528 567 
L 790.992 567 
L 790.992 562.962704 
L 786.528 562.962704 
z
" style="fill:#1f77b4;"/>
   </g>
   <g id="patch_156">
    <path clip-path="url(#p965d8a3dae)" d="M 790.992 567 
L 795.456 567 
L 795.456 563.61667 
L 790.992 563.61667 
z
" style="fill:#1f77b4;"/>
   </g>
   <g id="patch_157">
    <path clip-path="url(#p965d8a3dae)" d="M 795.456 567 
L 799.92 567 
L 799.92 563.589647 
L 795.456 563.589647 
z
" style="fill:#1f77b4;"/>
   </g>
   <g id="patch_158">
    <path clip-path="url(#p965d8a3dae)" d="M 799.92 567 
L 804.384 567 
L 804.384 563.768001 
L 799.92 563.768001 
z
" style="fill:#1f77b4;"/>
   </g>
   <g id="patch_159">
    <path clip-path="url(#p965d8a3dae)" d="M 804.384 567 
L 808.848 567 
L 808.848 563.892309 
L 804.384 563.892309 
z
" style="fill:#1f77b4;"/>
   </g>
   <g id="patch_160">
    <path clip-path="url(#p965d8a3dae)" d="M 808.848 567 
L 813.312 567 
L 813.312 563.719359 
L 808.848 563.719359 
z
" style="fill:#1f77b4;"/>
   </g>
   <g id="patch_161">
    <path clip-path="url(#p965d8a3dae)" d="M 813.312 567 
L 817.776 567 
L 817.776 564.119306 
L 813.312 564.119306 
z
" style="fill:#1f77b4;"/>
   </g>
   <g id="patch_162">
    <path clip-path="url(#p965d8a3dae)" d="M 817.776 567 
L 822.24 567 
L 822.24 564.103092 
L 817.776 564.103092 
z
" style="fill:#1f77b4;"/>
   </g>
   <g id="patch_163">
    <path clip-path="url(#p965d8a3dae)" d="M 822.24 567 
L 826.704 567 
L 826.704 564.022021 
L 822.24 564.022021 
z
" style="fill:#1f77b4;"/>
   </g>
   <g id="patch_164">
    <path clip-path="url(#p965d8a3dae)" d="M 826.704 567 
L 831.168 567 
L 831.168 564.151734 
L 826.704 564.151734 
z
" style="fill:#1f77b4;"/>
   </g>
   <g id="patch_165">
    <path clip-path="url(#p965d8a3dae)" d="M 831.168 567 
L 835.632 567 
L 835.632 564.211185 
L 831.168 564.211185 
z
" style="fill:#1f77b4;"/>
   </g>
   <g id="patch_166">
    <path clip-path="url(#p965d8a3dae)" d="M 835.632 567 
L 840.096 567 
L 840.096 564.38954 
L 835.632 564.38954 
z
" style="fill:#1f77b4;"/>
   </g>
   <g id="patch_167">
    <path clip-path="url(#p965d8a3dae)" d="M 840.096 567 
L 844.56 567 
L 844.56 564.059854 
L 840.096 564.059854 
z
" style="fill:#1f77b4;"/>
   </g>
   <g id="patch_168">
    <path clip-path="url(#p965d8a3dae)" d="M 844.56 567 
L 849.024 567 
L 849.024 564.227399 
L 844.56 564.227399 
z
" style="fill:#1f77b4;"/>
   </g>
   <g id="patch_169">
    <path clip-path="url(#p965d8a3dae)" d="M 849.024 567 
L 853.488 567 
L 853.488 564.432777 
L 849.024 564.432777 
z
" style="fill:#1f77b4;"/>
   </g>
   <g id="patch_170">
    <path clip-path="url(#p965d8a3dae)" d="M 853.488 567 
L 857.952 567 
L 857.952 564.270637 
L 853.488 564.270637 
z
" style="fill:#1f77b4;"/>
   </g>
   <g id="patch_171">
    <path clip-path="url(#p965d8a3dae)" d="M 857.952 567 
L 862.416 567 
L 862.416 564.740844 
L 857.952 564.740844 
z
" style="fill:#1f77b4;"/>
   </g>
   <g id="patch_172">
    <path clip-path="url(#p965d8a3dae)" d="M 862.416 567 
L 866.88 567 
L 866.88 564.627346 
L 862.416 564.627346 
z
" style="fill:#1f77b4;"/>
   </g>
   <g id="patch_173">
    <path clip-path="url(#p965d8a3dae)" d="M 866.88 567 
L 871.344 567 
L 871.344 564.697606 
L 866.88 564.697606 
z
" style="fill:#1f77b4;"/>
   </g>
   <g id="patch_174">
    <path clip-path="url(#p965d8a3dae)" d="M 871.344 567 
L 875.808 567 
L 875.808 564.71382 
L 871.344 564.71382 
z
" style="fill:#1f77b4;"/>
   </g>
   <g id="patch_175">
    <path clip-path="url(#p965d8a3dae)" d="M 875.808 567 
L 880.272 567 
L 880.272 564.681392 
L 875.808 564.681392 
z
" style="fill:#1f77b4;"/>
   </g>
   <g id="patch_176">
    <path clip-path="url(#p965d8a3dae)" d="M 880.272 567 
L 884.736 567 
L 884.736 564.800295 
L 880.272 564.800295 
z
" style="fill:#1f77b4;"/>
   </g>
   <g id="patch_177">
    <path clip-path="url(#p965d8a3dae)" d="M 884.736 567 
L 889.2 567 
L 889.2 564.913794 
L 884.736 564.913794 
z
" style="fill:#1f77b4;"/>
   </g>
   <g id="patch_178">
    <path clip-path="url(#p965d8a3dae)" d="M 889.2 567 
L 893.664 567 
L 893.664 564.800295 
L 889.2 564.800295 
z
" style="fill:#1f77b4;"/>
   </g>
   <g id="patch_179">
    <path clip-path="url(#p965d8a3dae)" d="M 893.664 567 
L 898.128 567 
L 898.128 565.038101 
L 893.664 565.038101 
z
" style="fill:#1f77b4;"/>
   </g>
   <g id="patch_180">
    <path clip-path="url(#p965d8a3dae)" d="M 898.128 567 
L 902.592 567 
L 902.592 565.000268 
L 898.128 565.000268 
z
" style="fill:#1f77b4;"/>
   </g>
   <g id="patch_181">
    <path clip-path="url(#p965d8a3dae)" d="M 902.592 567 
L 907.056 567 
L 907.056 565.102957 
L 902.592 565.102957 
z
" style="fill:#1f77b4;"/>
   </g>
   <g id="patch_182">
    <path clip-path="url(#p965d8a3dae)" d="M 907.056 567 
L 911.52 567 
L 911.52 565.119171 
L 907.056 565.119171 
z
" style="fill:#1f77b4;"/>
   </g>
   <g id="patch_183">
    <path clip-path="url(#p965d8a3dae)" d="M 911.52 567 
L 915.984 567 
L 915.984 565.194837 
L 911.52 565.194837 
z
" style="fill:#1f77b4;"/>
   </g>
   <g id="patch_184">
    <path clip-path="url(#p965d8a3dae)" d="M 915.984 567 
L 920.448 567 
L 920.448 565.238074 
L 915.984 565.238074 
z
" style="fill:#1f77b4;"/>
   </g>
   <g id="patch_185">
    <path clip-path="url(#p965d8a3dae)" d="M 920.448 567 
L 924.912 567 
L 924.912 565.389405 
L 920.448 565.389405 
z
" style="fill:#1f77b4;"/>
   </g>
   <g id="patch_186">
    <path clip-path="url(#p965d8a3dae)" d="M 924.912 567 
L 929.376 567 
L 929.376 565.227265 
L 924.912 565.227265 
z
" style="fill:#1f77b4;"/>
   </g>
   <g id="patch_187">
    <path clip-path="url(#p965d8a3dae)" d="M 929.376 567 
L 933.84 567 
L 933.84 565.427238 
L 929.376 565.427238 
z
" style="fill:#1f77b4;"/>
   </g>
   <g id="patch_188">
    <path clip-path="url(#p965d8a3dae)" d="M 933.84 567 
L 938.304 567 
L 938.304 565.589379 
L 933.84 565.589379 
z
" style="fill:#1f77b4;"/>
   </g>
   <g id="patch_189">
    <path clip-path="url(#p965d8a3dae)" d="M 938.304 567 
L 942.768 567 
L 942.768 564.827319 
L 938.304 564.827319 
z
" style="fill:#1f77b4;"/>
   </g>
   <g id="matplotlib.axis_1">
    <g id="xtick_1">
     <g id="line2d_1">
      <defs>
       <path d="M 0 0 
L 0 3.5 
" id="mdefaab5e1e" style="stroke:#000000;stroke-width:0.8;"/>
      </defs>
      <g>
       <use style="stroke:#000000;stroke-width:0.8;" x="108" xlink:href="#mdefaab5e1e" y="577"/>
      </g>
     </g>
     <g id="text_1">
      <!-- 0 -->
      <g transform="translate(104.81875 591.598438)scale(0.1 -0.1)">
       <defs>
        <path d="M 31.78125 66.40625 
Q 24.171875 66.40625 20.328125 58.90625 
Q 16.5 51.421875 16.5 36.375 
Q 16.5 21.390625 20.328125 13.890625 
Q 24.171875 6.390625 31.78125 6.390625 
Q 39.453125 6.390625 43.28125 13.890625 
Q 47.125 21.390625 47.125 36.375 
Q 47.125 51.421875 43.28125 58.90625 
Q 39.453125 66.40625 31.78125 66.40625 
z
M 31.78125 74.21875 
Q 44.046875 74.21875 50.515625 64.515625 
Q 56.984375 54.828125 56.984375 36.375 
Q 56.984375 17.96875 50.515625 8.265625 
Q 44.046875 -1.421875 31.78125 -1.421875 
Q 19.53125 -1.421875 13.0625 8.265625 
Q 6.59375 17.96875 6.59375 36.375 
Q 6.59375 54.828125 13.0625 64.515625 
Q 19.53125 74.21875 31.78125 74.21875 
z
" id="DejaVuSans-48"/>
       </defs>
       <use xlink:href="#DejaVuSans-48"/>
      </g>
     </g>
    </g>
    <g id="xtick_2">
     <g id="line2d_2">
      <g>
       <use style="stroke:#000000;stroke-width:0.8;" x="219.6" xlink:href="#mdefaab5e1e" y="577"/>
      </g>
     </g>
     <g id="text_2">
      <!-- 100 -->
      <g transform="translate(210.05625 591.598438)scale(0.1 -0.1)">
       <defs>
        <path d="M 12.40625 8.296875 
L 28.515625 8.296875 
L 28.515625 63.921875 
L 10.984375 60.40625 
L 10.984375 69.390625 
L 28.421875 72.90625 
L 38.28125 72.90625 
L 38.28125 8.296875 
L 54.390625 8.296875 
L 54.390625 0 
L 12.40625 0 
z
" id="DejaVuSans-49"/>
       </defs>
       <use xlink:href="#DejaVuSans-49"/>
       <use x="63.623047" xlink:href="#DejaVuSans-48"/>
       <use x="127.246094" xlink:href="#DejaVuSans-48"/>
      </g>
     </g>
    </g>
    <g id="xtick_3">
     <g id="line2d_3">
      <g>
       <use style="stroke:#000000;stroke-width:0.8;" x="331.2" xlink:href="#mdefaab5e1e" y="577"/>
      </g>
     </g>
     <g id="text_3">
      <!-- 200 -->
      <g transform="translate(321.65625 591.598438)scale(0.1 -0.1)">
       <defs>
        <path d="M 19.1875 8.296875 
L 53.609375 8.296875 
L 53.609375 0 
L 7.328125 0 
L 7.328125 8.296875 
Q 12.9375 14.109375 22.625 23.890625 
Q 32.328125 33.6875 34.8125 36.53125 
Q 39.546875 41.84375 41.421875 45.53125 
Q 43.3125 49.21875 43.3125 52.78125 
Q 43.3125 58.59375 39.234375 62.25 
Q 35.15625 65.921875 28.609375 65.921875 
Q 23.96875 65.921875 18.8125 64.3125 
Q 13.671875 62.703125 7.8125 59.421875 
L 7.8125 69.390625 
Q 13.765625 71.78125 18.9375 73 
Q 24.125 74.21875 28.421875 74.21875 
Q 39.75 74.21875 46.484375 68.546875 
Q 53.21875 62.890625 53.21875 53.421875 
Q 53.21875 48.921875 51.53125 44.890625 
Q 49.859375 40.875 45.40625 35.40625 
Q 44.1875 33.984375 37.640625 27.21875 
Q 31.109375 20.453125 19.1875 8.296875 
z
" id="DejaVuSans-50"/>
       </defs>
       <use xlink:href="#DejaVuSans-50"/>
       <use x="63.623047" xlink:href="#DejaVuSans-48"/>
       <use x="127.246094" xlink:href="#DejaVuSans-48"/>
      </g>
     </g>
    </g>
    <g id="xtick_4">
     <g id="line2d_4">
      <g>
       <use style="stroke:#000000;stroke-width:0.8;" x="442.8" xlink:href="#mdefaab5e1e" y="577"/>
      </g>
     </g>
     <g id="text_4">
      <!-- 300 -->
      <g transform="translate(433.25625 591.598438)scale(0.1 -0.1)">
       <defs>
        <path d="M 40.578125 39.3125 
Q 47.65625 37.796875 51.625 33 
Q 55.609375 28.21875 55.609375 21.1875 
Q 55.609375 10.40625 48.1875 4.484375 
Q 40.765625 -1.421875 27.09375 -1.421875 
Q 22.515625 -1.421875 17.65625 -0.515625 
Q 12.796875 0.390625 7.625 2.203125 
L 7.625 11.71875 
Q 11.71875 9.328125 16.59375 8.109375 
Q 21.484375 6.890625 26.8125 6.890625 
Q 36.078125 6.890625 40.9375 10.546875 
Q 45.796875 14.203125 45.796875 21.1875 
Q 45.796875 27.640625 41.28125 31.265625 
Q 36.765625 34.90625 28.71875 34.90625 
L 20.21875 34.90625 
L 20.21875 43.015625 
L 29.109375 43.015625 
Q 36.375 43.015625 40.234375 45.921875 
Q 44.09375 48.828125 44.09375 54.296875 
Q 44.09375 59.90625 40.109375 62.90625 
Q 36.140625 65.921875 28.71875 65.921875 
Q 24.65625 65.921875 20.015625 65.03125 
Q 15.375 64.15625 9.8125 62.3125 
L 9.8125 71.09375 
Q 15.4375 72.65625 20.34375 73.4375 
Q 25.25 74.21875 29.59375 74.21875 
Q 40.828125 74.21875 47.359375 69.109375 
Q 53.90625 64.015625 53.90625 55.328125 
Q 53.90625 49.265625 50.4375 45.09375 
Q 46.96875 40.921875 40.578125 39.3125 
z
" id="DejaVuSans-51"/>
       </defs>
       <use xlink:href="#DejaVuSans-51"/>
       <use x="63.623047" xlink:href="#DejaVuSans-48"/>
       <use x="127.246094" xlink:href="#DejaVuSans-48"/>
      </g>
     </g>
    </g>
    <g id="xtick_5">
     <g id="line2d_5">
      <g>
       <use style="stroke:#000000;stroke-width:0.8;" x="554.4" xlink:href="#mdefaab5e1e" y="577"/>
      </g>
     </g>
     <g id="text_5">
      <!-- 400 -->
      <g transform="translate(544.85625 591.598438)scale(0.1 -0.1)">
       <defs>
        <path d="M 37.796875 64.3125 
L 12.890625 25.390625 
L 37.796875 25.390625 
z
M 35.203125 72.90625 
L 47.609375 72.90625 
L 47.609375 25.390625 
L 58.015625 25.390625 
L 58.015625 17.1875 
L 47.609375 17.1875 
L 47.609375 0 
L 37.796875 0 
L 37.796875 17.1875 
L 4.890625 17.1875 
L 4.890625 26.703125 
z
" id="DejaVuSans-52"/>
       </defs>
       <use xlink:href="#DejaVuSans-52"/>
       <use x="63.623047" xlink:href="#DejaVuSans-48"/>
       <use x="127.246094" xlink:href="#DejaVuSans-48"/>
      </g>
     </g>
    </g>
    <g id="xtick_6">
     <g id="line2d_6">
      <g>
       <use style="stroke:#000000;stroke-width:0.8;" x="666" xlink:href="#mdefaab5e1e" y="577"/>
      </g>
     </g>
     <g id="text_6">
      <!-- 500 -->
      <g transform="translate(656.45625 591.598438)scale(0.1 -0.1)">
       <defs>
        <path d="M 10.796875 72.90625 
L 49.515625 72.90625 
L 49.515625 64.59375 
L 19.828125 64.59375 
L 19.828125 46.734375 
Q 21.96875 47.46875 24.109375 47.828125 
Q 26.265625 48.1875 28.421875 48.1875 
Q 40.625 48.1875 47.75 41.5 
Q 54.890625 34.8125 54.890625 23.390625 
Q 54.890625 11.625 47.5625 5.09375 
Q 40.234375 -1.421875 26.90625 -1.421875 
Q 22.3125 -1.421875 17.546875 -0.640625 
Q 12.796875 0.140625 7.71875 1.703125 
L 7.71875 11.625 
Q 12.109375 9.234375 16.796875 8.0625 
Q 21.484375 6.890625 26.703125 6.890625 
Q 35.15625 6.890625 40.078125 11.328125 
Q 45.015625 15.765625 45.015625 23.390625 
Q 45.015625 31 40.078125 35.4375 
Q 35.15625 39.890625 26.703125 39.890625 
Q 22.75 39.890625 18.8125 39.015625 
Q 14.890625 38.140625 10.796875 36.28125 
z
" id="DejaVuSans-53"/>
       </defs>
       <use xlink:href="#DejaVuSans-53"/>
       <use x="63.623047" xlink:href="#DejaVuSans-48"/>
       <use x="127.246094" xlink:href="#DejaVuSans-48"/>
      </g>
     </g>
    </g>
    <g id="xtick_7">
     <g id="line2d_7">
      <g>
       <use style="stroke:#000000;stroke-width:0.8;" x="777.6" xlink:href="#mdefaab5e1e" y="577"/>
      </g>
     </g>
     <g id="text_7">
      <!-- 600 -->
      <g transform="translate(768.05625 591.598438)scale(0.1 -0.1)">
       <defs>
        <path d="M 33.015625 40.375 
Q 26.375 40.375 22.484375 35.828125 
Q 18.609375 31.296875 18.609375 23.390625 
Q 18.609375 15.53125 22.484375 10.953125 
Q 26.375 6.390625 33.015625 6.390625 
Q 39.65625 6.390625 43.53125 10.953125 
Q 47.40625 15.53125 47.40625 23.390625 
Q 47.40625 31.296875 43.53125 35.828125 
Q 39.65625 40.375 33.015625 40.375 
z
M 52.59375 71.296875 
L 52.59375 62.3125 
Q 48.875 64.0625 45.09375 64.984375 
Q 41.3125 65.921875 37.59375 65.921875 
Q 27.828125 65.921875 22.671875 59.328125 
Q 17.53125 52.734375 16.796875 39.40625 
Q 19.671875 43.65625 24.015625 45.921875 
Q 28.375 48.1875 33.59375 48.1875 
Q 44.578125 48.1875 50.953125 41.515625 
Q 57.328125 34.859375 57.328125 23.390625 
Q 57.328125 12.15625 50.6875 5.359375 
Q 44.046875 -1.421875 33.015625 -1.421875 
Q 20.359375 -1.421875 13.671875 8.265625 
Q 6.984375 17.96875 6.984375 36.375 
Q 6.984375 53.65625 15.1875 63.9375 
Q 23.390625 74.21875 37.203125 74.21875 
Q 40.921875 74.21875 44.703125 73.484375 
Q 48.484375 72.75 52.59375 71.296875 
z
" id="DejaVuSans-54"/>
       </defs>
       <use xlink:href="#DejaVuSans-54"/>
       <use x="63.623047" xlink:href="#DejaVuSans-48"/>
       <use x="127.246094" xlink:href="#DejaVuSans-48"/>
      </g>
     </g>
    </g>
    <g id="text_8">
     <!-- DP -->
     <g transform="translate(435.935156 605.276562)scale(0.1 -0.1)">
      <defs>
       <path d="M 19.671875 64.796875 
L 19.671875 8.109375 
L 31.59375 8.109375 
Q 46.6875 8.109375 53.6875 14.9375 
Q 60.6875 21.78125 60.6875 36.53125 
Q 60.6875 51.171875 53.6875 57.984375 
Q 46.6875 64.796875 31.59375 64.796875 
z
M 9.8125 72.90625 
L 30.078125 72.90625 
Q 51.265625 72.90625 61.171875 64.09375 
Q 71.09375 55.28125 71.09375 36.53125 
Q 71.09375 17.671875 61.125 8.828125 
Q 51.171875 0 30.078125 0 
L 9.8125 0 
z
" id="DejaVuSans-68"/>
       <path d="M 19.671875 64.796875 
L 19.671875 37.40625 
L 32.078125 37.40625 
Q 38.96875 37.40625 42.71875 40.96875 
Q 46.484375 44.53125 46.484375 51.125 
Q 46.484375 57.671875 42.71875 61.234375 
Q 38.96875 64.796875 32.078125 64.796875 
z
M 9.8125 72.90625 
L 32.078125 72.90625 
Q 44.34375 72.90625 50.609375 67.359375 
Q 56.890625 61.8125 56.890625 51.125 
Q 56.890625 40.328125 50.609375 34.8125 
Q 44.34375 29.296875 32.078125 29.296875 
L 19.671875 29.296875 
L 19.671875 0 
L 9.8125 0 
z
" id="DejaVuSans-80"/>
      </defs>
      <use xlink:href="#DejaVuSans-68"/>
      <use x="77.001953" xlink:href="#DejaVuSans-80"/>
     </g>
    </g>
   </g>
   <g id="matplotlib.axis_2">
    <g id="ytick_1">
     <g id="line2d_8">
      <defs>
       <path d="M 0 0 
L -3.5 0 
" id="mf2f353d477" style="stroke:#000000;stroke-width:0.8;"/>
      </defs>
      <g>
       <use style="stroke:#000000;stroke-width:0.8;" x="98" xlink:href="#mf2f353d477" y="567"/>
      </g>
     </g>
     <g id="text_9">
      <!-- 0 -->
      <g transform="translate(84.6375 570.799219)scale(0.1 -0.1)">
       <use xlink:href="#DejaVuSans-48"/>
      </g>
     </g>
    </g>
    <g id="ytick_2">
     <g id="line2d_9">
      <g>
       <use style="stroke:#000000;stroke-width:0.8;" x="98" xlink:href="#mf2f353d477" y="458.906402"/>
      </g>
     </g>
     <g id="text_10">
      <!-- 20000 -->
      <g transform="translate(59.1875 462.705621)scale(0.1 -0.1)">
       <use xlink:href="#DejaVuSans-50"/>
       <use x="63.623047" xlink:href="#DejaVuSans-48"/>
       <use x="127.246094" xlink:href="#DejaVuSans-48"/>
       <use x="190.869141" xlink:href="#DejaVuSans-48"/>
       <use x="254.492188" xlink:href="#DejaVuSans-48"/>
      </g>
     </g>
    </g>
    <g id="ytick_3">
     <g id="line2d_10">
      <g>
       <use style="stroke:#000000;stroke-width:0.8;" x="98" xlink:href="#mf2f353d477" y="350.812805"/>
      </g>
     </g>
     <g id="text_11">
      <!-- 40000 -->
      <g transform="translate(59.1875 354.612024)scale(0.1 -0.1)">
       <use xlink:href="#DejaVuSans-52"/>
       <use x="63.623047" xlink:href="#DejaVuSans-48"/>
       <use x="127.246094" xlink:href="#DejaVuSans-48"/>
       <use x="190.869141" xlink:href="#DejaVuSans-48"/>
       <use x="254.492188" xlink:href="#DejaVuSans-48"/>
      </g>
     </g>
    </g>
    <g id="ytick_4">
     <g id="line2d_11">
      <g>
       <use style="stroke:#000000;stroke-width:0.8;" x="98" xlink:href="#mf2f353d477" y="242.719207"/>
      </g>
     </g>
     <g id="text_12">
      <!-- 60000 -->
      <g transform="translate(59.1875 246.518426)scale(0.1 -0.1)">
       <use xlink:href="#DejaVuSans-54"/>
       <use x="63.623047" xlink:href="#DejaVuSans-48"/>
       <use x="127.246094" xlink:href="#DejaVuSans-48"/>
       <use x="190.869141" xlink:href="#DejaVuSans-48"/>
       <use x="254.492188" xlink:href="#DejaVuSans-48"/>
      </g>
     </g>
    </g>
    <g id="ytick_5">
     <g id="line2d_12">
      <g>
       <use style="stroke:#000000;stroke-width:0.8;" x="98" xlink:href="#mf2f353d477" y="134.62561"/>
      </g>
     </g>
     <g id="text_13">
      <!-- 80000 -->
      <g transform="translate(59.1875 138.424828)scale(0.1 -0.1)">
       <defs>
        <path d="M 31.78125 34.625 
Q 24.75 34.625 20.71875 30.859375 
Q 16.703125 27.09375 16.703125 20.515625 
Q 16.703125 13.921875 20.71875 10.15625 
Q 24.75 6.390625 31.78125 6.390625 
Q 38.8125 6.390625 42.859375 10.171875 
Q 46.921875 13.96875 46.921875 20.515625 
Q 46.921875 27.09375 42.890625 30.859375 
Q 38.875 34.625 31.78125 34.625 
z
M 21.921875 38.8125 
Q 15.578125 40.375 12.03125 44.71875 
Q 8.5 49.078125 8.5 55.328125 
Q 8.5 64.0625 14.71875 69.140625 
Q 20.953125 74.21875 31.78125 74.21875 
Q 42.671875 74.21875 48.875 69.140625 
Q 55.078125 64.0625 55.078125 55.328125 
Q 55.078125 49.078125 51.53125 44.71875 
Q 48 40.375 41.703125 38.8125 
Q 48.828125 37.15625 52.796875 32.3125 
Q 56.78125 27.484375 56.78125 20.515625 
Q 56.78125 9.90625 50.3125 4.234375 
Q 43.84375 -1.421875 31.78125 -1.421875 
Q 19.734375 -1.421875 13.25 4.234375 
Q 6.78125 9.90625 6.78125 20.515625 
Q 6.78125 27.484375 10.78125 32.3125 
Q 14.796875 37.15625 21.921875 38.8125 
z
M 18.3125 54.390625 
Q 18.3125 48.734375 21.84375 45.5625 
Q 25.390625 42.390625 31.78125 42.390625 
Q 38.140625 42.390625 41.71875 45.5625 
Q 45.3125 48.734375 45.3125 54.390625 
Q 45.3125 60.0625 41.71875 63.234375 
Q 38.140625 66.40625 31.78125 66.40625 
Q 25.390625 66.40625 21.84375 63.234375 
Q 18.3125 60.0625 18.3125 54.390625 
z
" id="DejaVuSans-56"/>
       </defs>
       <use xlink:href="#DejaVuSans-56"/>
       <use x="63.623047" xlink:href="#DejaVuSans-48"/>
       <use x="127.246094" xlink:href="#DejaVuSans-48"/>
       <use x="190.869141" xlink:href="#DejaVuSans-48"/>
       <use x="254.492188" xlink:href="#DejaVuSans-48"/>
      </g>
     </g>
    </g>
    <g id="text_14">
     <!-- Amount -->
     <g transform="translate(53.107812 342.027656)rotate(-90)scale(0.1 -0.1)">
      <defs>
       <path d="M 34.1875 63.1875 
L 20.796875 26.90625 
L 47.609375 26.90625 
z
M 28.609375 72.90625 
L 39.796875 72.90625 
L 67.578125 0 
L 57.328125 0 
L 50.6875 18.703125 
L 17.828125 18.703125 
L 11.1875 0 
L 0.78125 0 
z
" id="DejaVuSans-65"/>
       <path d="M 52 44.1875 
Q 55.375 50.25 60.0625 53.125 
Q 64.75 56 71.09375 56 
Q 79.640625 56 84.28125 50.015625 
Q 88.921875 44.046875 88.921875 33.015625 
L 88.921875 0 
L 79.890625 0 
L 79.890625 32.71875 
Q 79.890625 40.578125 77.09375 44.375 
Q 74.3125 48.1875 68.609375 48.1875 
Q 61.625 48.1875 57.5625 43.546875 
Q 53.515625 38.921875 53.515625 30.90625 
L 53.515625 0 
L 44.484375 0 
L 44.484375 32.71875 
Q 44.484375 40.625 41.703125 44.40625 
Q 38.921875 48.1875 33.109375 48.1875 
Q 26.21875 48.1875 22.15625 43.53125 
Q 18.109375 38.875 18.109375 30.90625 
L 18.109375 0 
L 9.078125 0 
L 9.078125 54.6875 
L 18.109375 54.6875 
L 18.109375 46.1875 
Q 21.1875 51.21875 25.484375 53.609375 
Q 29.78125 56 35.6875 56 
Q 41.65625 56 45.828125 52.96875 
Q 50 49.953125 52 44.1875 
z
" id="DejaVuSans-109"/>
       <path d="M 30.609375 48.390625 
Q 23.390625 48.390625 19.1875 42.75 
Q 14.984375 37.109375 14.984375 27.296875 
Q 14.984375 17.484375 19.15625 11.84375 
Q 23.34375 6.203125 30.609375 6.203125 
Q 37.796875 6.203125 41.984375 11.859375 
Q 46.1875 17.53125 46.1875 27.296875 
Q 46.1875 37.015625 41.984375 42.703125 
Q 37.796875 48.390625 30.609375 48.390625 
z
M 30.609375 56 
Q 42.328125 56 49.015625 48.375 
Q 55.71875 40.765625 55.71875 27.296875 
Q 55.71875 13.875 49.015625 6.21875 
Q 42.328125 -1.421875 30.609375 -1.421875 
Q 18.84375 -1.421875 12.171875 6.21875 
Q 5.515625 13.875 5.515625 27.296875 
Q 5.515625 40.765625 12.171875 48.375 
Q 18.84375 56 30.609375 56 
z
" id="DejaVuSans-111"/>
       <path d="M 8.5 21.578125 
L 8.5 54.6875 
L 17.484375 54.6875 
L 17.484375 21.921875 
Q 17.484375 14.15625 20.5 10.265625 
Q 23.53125 6.390625 29.59375 6.390625 
Q 36.859375 6.390625 41.078125 11.03125 
Q 45.3125 15.671875 45.3125 23.6875 
L 45.3125 54.6875 
L 54.296875 54.6875 
L 54.296875 0 
L 45.3125 0 
L 45.3125 8.40625 
Q 42.046875 3.421875 37.71875 1 
Q 33.40625 -1.421875 27.6875 -1.421875 
Q 18.265625 -1.421875 13.375 4.4375 
Q 8.5 10.296875 8.5 21.578125 
z
M 31.109375 56 
z
" id="DejaVuSans-117"/>
       <path d="M 54.890625 33.015625 
L 54.890625 0 
L 45.90625 0 
L 45.90625 32.71875 
Q 45.90625 40.484375 42.875 44.328125 
Q 39.84375 48.1875 33.796875 48.1875 
Q 26.515625 48.1875 22.3125 43.546875 
Q 18.109375 38.921875 18.109375 30.90625 
L 18.109375 0 
L 9.078125 0 
L 9.078125 54.6875 
L 18.109375 54.6875 
L 18.109375 46.1875 
Q 21.34375 51.125 25.703125 53.5625 
Q 30.078125 56 35.796875 56 
Q 45.21875 56 50.046875 50.171875 
Q 54.890625 44.34375 54.890625 33.015625 
z
" id="DejaVuSans-110"/>
       <path d="M 18.3125 70.21875 
L 18.3125 54.6875 
L 36.8125 54.6875 
L 36.8125 47.703125 
L 18.3125 47.703125 
L 18.3125 18.015625 
Q 18.3125 11.328125 20.140625 9.421875 
Q 21.96875 7.515625 27.59375 7.515625 
L 36.8125 7.515625 
L 36.8125 0 
L 27.59375 0 
Q 17.1875 0 13.234375 3.875 
Q 9.28125 7.765625 9.28125 18.015625 
L 9.28125 47.703125 
L 2.6875 47.703125 
L 2.6875 54.6875 
L 9.28125 54.6875 
L 9.28125 70.21875 
z
" id="DejaVuSans-116"/>
      </defs>
      <use xlink:href="#DejaVuSans-65"/>
      <use x="68.408203" xlink:href="#DejaVuSans-109"/>
      <use x="165.820312" xlink:href="#DejaVuSans-111"/>
      <use x="227.001953" xlink:href="#DejaVuSans-117"/>
      <use x="290.380859" xlink:href="#DejaVuSans-110"/>
      <use x="353.759766" xlink:href="#DejaVuSans-116"/>
     </g>
    </g>
   </g>
   <g id="line2d_13">
    <path clip-path="url(#p965d8a3dae)" style="fill:none;stroke:#008000;stroke-dasharray:5.55,2.4;stroke-dashoffset:0;stroke-opacity:0.75;stroke-width:1.5;"/>
   </g>
   <g id="line2d_14">
    <path clip-path="url(#p965d8a3dae)" d="M 836.725349 567 
L 836.725349 77.76 
" style="fill:none;stroke:#008000;stroke-dasharray:5.55,2.4;stroke-dashoffset:0;stroke-opacity:0.75;stroke-width:1.5;"/>
   </g>
   <g id="patch_190">
    <path d="M 98 567 
L 98 77.76 
" style="fill:none;stroke:#000000;stroke-linecap:square;stroke-linejoin:miter;stroke-width:0.8;"/>
   </g>
   <g id="patch_191">
    <path d="M 108 577 
L 777.6 577 
" style="fill:none;stroke:#000000;stroke-linecap:square;stroke-linejoin:miter;stroke-width:0.8;"/>
   </g>
   <g id="text_15">
    <!-- Mean: 173 -->
    <g transform="translate(442.8 304.4635)scale(0.16 -0.16)">
     <defs>
      <path d="M 9.8125 72.90625 
L 24.515625 72.90625 
L 43.109375 23.296875 
L 61.8125 72.90625 
L 76.515625 72.90625 
L 76.515625 0 
L 66.890625 0 
L 66.890625 64.015625 
L 48.09375 14.015625 
L 38.1875 14.015625 
L 19.390625 64.015625 
L 19.390625 0 
L 9.8125 0 
z
" id="DejaVuSans-77"/>
      <path d="M 56.203125 29.59375 
L 56.203125 25.203125 
L 14.890625 25.203125 
Q 15.484375 15.921875 20.484375 11.0625 
Q 25.484375 6.203125 34.421875 6.203125 
Q 39.59375 6.203125 44.453125 7.46875 
Q 49.3125 8.734375 54.109375 11.28125 
L 54.109375 2.78125 
Q 49.265625 0.734375 44.1875 -0.34375 
Q 39.109375 -1.421875 33.890625 -1.421875 
Q 20.796875 -1.421875 13.15625 6.1875 
Q 5.515625 13.8125 5.515625 26.8125 
Q 5.515625 40.234375 12.765625 48.109375 
Q 20.015625 56 32.328125 56 
Q 43.359375 56 49.78125 48.890625 
Q 56.203125 41.796875 56.203125 29.59375 
z
M 47.21875 32.234375 
Q 47.125 39.59375 43.09375 43.984375 
Q 39.0625 48.390625 32.421875 48.390625 
Q 24.90625 48.390625 20.390625 44.140625 
Q 15.875 39.890625 15.1875 32.171875 
z
" id="DejaVuSans-101"/>
      <path d="M 34.28125 27.484375 
Q 23.390625 27.484375 19.1875 25 
Q 14.984375 22.515625 14.984375 16.5 
Q 14.984375 11.71875 18.140625 8.90625 
Q 21.296875 6.109375 26.703125 6.109375 
Q 34.1875 6.109375 38.703125 11.40625 
Q 43.21875 16.703125 43.21875 25.484375 
L 43.21875 27.484375 
z
M 52.203125 31.203125 
L 52.203125 0 
L 43.21875 0 
L 43.21875 8.296875 
Q 40.140625 3.328125 35.546875 0.953125 
Q 30.953125 -1.421875 24.3125 -1.421875 
Q 15.921875 -1.421875 10.953125 3.296875 
Q 6 8.015625 6 15.921875 
Q 6 25.140625 12.171875 29.828125 
Q 18.359375 34.515625 30.609375 34.515625 
L 43.21875 34.515625 
L 43.21875 35.40625 
Q 43.21875 41.609375 39.140625 45 
Q 35.0625 48.390625 27.6875 48.390625 
Q 23 48.390625 18.546875 47.265625 
Q 14.109375 46.140625 10.015625 43.890625 
L 10.015625 52.203125 
Q 14.9375 54.109375 19.578125 55.046875 
Q 24.21875 56 28.609375 56 
Q 40.484375 56 46.34375 49.84375 
Q 52.203125 43.703125 52.203125 31.203125 
z
" id="DejaVuSans-97"/>
      <path d="M 11.71875 12.40625 
L 22.015625 12.40625 
L 22.015625 0 
L 11.71875 0 
z
M 11.71875 51.703125 
L 22.015625 51.703125 
L 22.015625 39.3125 
L 11.71875 39.3125 
z
" id="DejaVuSans-58"/>
      <path id="DejaVuSans-32"/>
      <path d="M 8.203125 72.90625 
L 55.078125 72.90625 
L 55.078125 68.703125 
L 28.609375 0 
L 18.3125 0 
L 43.21875 64.59375 
L 8.203125 64.59375 
z
" id="DejaVuSans-55"/>
     </defs>
     <use xlink:href="#DejaVuSans-77"/>
     <use x="86.279297" xlink:href="#DejaVuSans-101"/>
     <use x="147.802734" xlink:href="#DejaVuSans-97"/>
     <use x="209.082031" xlink:href="#DejaVuSans-110"/>
     <use x="272.460938" xlink:href="#DejaVuSans-58"/>
     <use x="306.152344" xlink:href="#DejaVuSans-32"/>
     <use x="337.939453" xlink:href="#DejaVuSans-49"/>
     <use x="401.5625" xlink:href="#DejaVuSans-55"/>
     <use x="465.185547" xlink:href="#DejaVuSans-51"/>
    </g>
    <!-- StdDev: 479 -->
    <g transform="translate(442.8 322.38)scale(0.16 -0.16)">
     <defs>
      <path d="M 53.515625 70.515625 
L 53.515625 60.890625 
Q 47.90625 63.578125 42.921875 64.890625 
Q 37.9375 66.21875 33.296875 66.21875 
Q 25.25 66.21875 20.875 63.09375 
Q 16.5 59.96875 16.5 54.203125 
Q 16.5 49.359375 19.40625 46.890625 
Q 22.3125 44.4375 30.421875 42.921875 
L 36.375 41.703125 
Q 47.40625 39.59375 52.65625 34.296875 
Q 57.90625 29 57.90625 20.125 
Q 57.90625 9.515625 50.796875 4.046875 
Q 43.703125 -1.421875 29.984375 -1.421875 
Q 24.8125 -1.421875 18.96875 -0.25 
Q 13.140625 0.921875 6.890625 3.21875 
L 6.890625 13.375 
Q 12.890625 10.015625 18.65625 8.296875 
Q 24.421875 6.59375 29.984375 6.59375 
Q 38.421875 6.59375 43.015625 9.90625 
Q 47.609375 13.234375 47.609375 19.390625 
Q 47.609375 24.75 44.3125 27.78125 
Q 41.015625 30.8125 33.5 32.328125 
L 27.484375 33.5 
Q 16.453125 35.6875 11.515625 40.375 
Q 6.59375 45.0625 6.59375 53.421875 
Q 6.59375 63.09375 13.40625 68.65625 
Q 20.21875 74.21875 32.171875 74.21875 
Q 37.3125 74.21875 42.625 73.28125 
Q 47.953125 72.359375 53.515625 70.515625 
z
" id="DejaVuSans-83"/>
      <path d="M 45.40625 46.390625 
L 45.40625 75.984375 
L 54.390625 75.984375 
L 54.390625 0 
L 45.40625 0 
L 45.40625 8.203125 
Q 42.578125 3.328125 38.25 0.953125 
Q 33.9375 -1.421875 27.875 -1.421875 
Q 17.96875 -1.421875 11.734375 6.484375 
Q 5.515625 14.40625 5.515625 27.296875 
Q 5.515625 40.1875 11.734375 48.09375 
Q 17.96875 56 27.875 56 
Q 33.9375 56 38.25 53.625 
Q 42.578125 51.265625 45.40625 46.390625 
z
M 14.796875 27.296875 
Q 14.796875 17.390625 18.875 11.75 
Q 22.953125 6.109375 30.078125 6.109375 
Q 37.203125 6.109375 41.296875 11.75 
Q 45.40625 17.390625 45.40625 27.296875 
Q 45.40625 37.203125 41.296875 42.84375 
Q 37.203125 48.484375 30.078125 48.484375 
Q 22.953125 48.484375 18.875 42.84375 
Q 14.796875 37.203125 14.796875 27.296875 
z
" id="DejaVuSans-100"/>
      <path d="M 2.984375 54.6875 
L 12.5 54.6875 
L 29.59375 8.796875 
L 46.6875 54.6875 
L 56.203125 54.6875 
L 35.6875 0 
L 23.484375 0 
z
" id="DejaVuSans-118"/>
      <path d="M 10.984375 1.515625 
L 10.984375 10.5 
Q 14.703125 8.734375 18.5 7.8125 
Q 22.3125 6.890625 25.984375 6.890625 
Q 35.75 6.890625 40.890625 13.453125 
Q 46.046875 20.015625 46.78125 33.40625 
Q 43.953125 29.203125 39.59375 26.953125 
Q 35.25 24.703125 29.984375 24.703125 
Q 19.046875 24.703125 12.671875 31.3125 
Q 6.296875 37.9375 6.296875 49.421875 
Q 6.296875 60.640625 12.9375 67.421875 
Q 19.578125 74.21875 30.609375 74.21875 
Q 43.265625 74.21875 49.921875 64.515625 
Q 56.59375 54.828125 56.59375 36.375 
Q 56.59375 19.140625 48.40625 8.859375 
Q 40.234375 -1.421875 26.421875 -1.421875 
Q 22.703125 -1.421875 18.890625 -0.6875 
Q 15.09375 0.046875 10.984375 1.515625 
z
M 30.609375 32.421875 
Q 37.25 32.421875 41.125 36.953125 
Q 45.015625 41.5 45.015625 49.421875 
Q 45.015625 57.28125 41.125 61.84375 
Q 37.25 66.40625 30.609375 66.40625 
Q 23.96875 66.40625 20.09375 61.84375 
Q 16.21875 57.28125 16.21875 49.421875 
Q 16.21875 41.5 20.09375 36.953125 
Q 23.96875 32.421875 30.609375 32.421875 
z
" id="DejaVuSans-57"/>
     </defs>
     <use xlink:href="#DejaVuSans-83"/>
     <use x="63.476562" xlink:href="#DejaVuSans-116"/>
     <use x="102.685547" xlink:href="#DejaVuSans-100"/>
     <use x="166.162109" xlink:href="#DejaVuSans-68"/>
     <use x="243.164062" xlink:href="#DejaVuSans-101"/>
     <use x="304.6875" xlink:href="#DejaVuSans-118"/>
     <use x="358.367188" xlink:href="#DejaVuSans-58"/>
     <use x="392.058594" xlink:href="#DejaVuSans-32"/>
     <use x="423.845703" xlink:href="#DejaVuSans-52"/>
     <use x="487.46875" xlink:href="#DejaVuSans-55"/>
     <use x="551.091797" xlink:href="#DejaVuSans-57"/>
    </g>
   </g>
   <g id="text_16">
    <!-- DP-distribution-Con-D2-all-chromosomes -->
    <g transform="translate(320.491875 71.76)scale(0.12 -0.12)">
     <defs>
      <path d="M 4.890625 31.390625 
L 31.203125 31.390625 
L 31.203125 23.390625 
L 4.890625 23.390625 
z
" id="DejaVuSans-45"/>
      <path d="M 9.421875 54.6875 
L 18.40625 54.6875 
L 18.40625 0 
L 9.421875 0 
z
M 9.421875 75.984375 
L 18.40625 75.984375 
L 18.40625 64.59375 
L 9.421875 64.59375 
z
" id="DejaVuSans-105"/>
      <path d="M 44.28125 53.078125 
L 44.28125 44.578125 
Q 40.484375 46.53125 36.375 47.5 
Q 32.28125 48.484375 27.875 48.484375 
Q 21.1875 48.484375 17.84375 46.4375 
Q 14.5 44.390625 14.5 40.28125 
Q 14.5 37.15625 16.890625 35.375 
Q 19.28125 33.59375 26.515625 31.984375 
L 29.59375 31.296875 
Q 39.15625 29.25 43.1875 25.515625 
Q 47.21875 21.78125 47.21875 15.09375 
Q 47.21875 7.46875 41.1875 3.015625 
Q 35.15625 -1.421875 24.609375 -1.421875 
Q 20.21875 -1.421875 15.453125 -0.5625 
Q 10.6875 0.296875 5.421875 2 
L 5.421875 11.28125 
Q 10.40625 8.6875 15.234375 7.390625 
Q 20.0625 6.109375 24.8125 6.109375 
Q 31.15625 6.109375 34.5625 8.28125 
Q 37.984375 10.453125 37.984375 14.40625 
Q 37.984375 18.0625 35.515625 20.015625 
Q 33.0625 21.96875 24.703125 23.78125 
L 21.578125 24.515625 
Q 13.234375 26.265625 9.515625 29.90625 
Q 5.8125 33.546875 5.8125 39.890625 
Q 5.8125 47.609375 11.28125 51.796875 
Q 16.75 56 26.8125 56 
Q 31.78125 56 36.171875 55.265625 
Q 40.578125 54.546875 44.28125 53.078125 
z
" id="DejaVuSans-115"/>
      <path d="M 41.109375 46.296875 
Q 39.59375 47.171875 37.8125 47.578125 
Q 36.03125 48 33.890625 48 
Q 26.265625 48 22.1875 43.046875 
Q 18.109375 38.09375 18.109375 28.8125 
L 18.109375 0 
L 9.078125 0 
L 9.078125 54.6875 
L 18.109375 54.6875 
L 18.109375 46.1875 
Q 20.953125 51.171875 25.484375 53.578125 
Q 30.03125 56 36.53125 56 
Q 37.453125 56 38.578125 55.875 
Q 39.703125 55.765625 41.0625 55.515625 
z
" id="DejaVuSans-114"/>
      <path d="M 48.6875 27.296875 
Q 48.6875 37.203125 44.609375 42.84375 
Q 40.53125 48.484375 33.40625 48.484375 
Q 26.265625 48.484375 22.1875 42.84375 
Q 18.109375 37.203125 18.109375 27.296875 
Q 18.109375 17.390625 22.1875 11.75 
Q 26.265625 6.109375 33.40625 6.109375 
Q 40.53125 6.109375 44.609375 11.75 
Q 48.6875 17.390625 48.6875 27.296875 
z
M 18.109375 46.390625 
Q 20.953125 51.265625 25.265625 53.625 
Q 29.59375 56 35.59375 56 
Q 45.5625 56 51.78125 48.09375 
Q 58.015625 40.1875 58.015625 27.296875 
Q 58.015625 14.40625 51.78125 6.484375 
Q 45.5625 -1.421875 35.59375 -1.421875 
Q 29.59375 -1.421875 25.265625 0.953125 
Q 20.953125 3.328125 18.109375 8.203125 
L 18.109375 0 
L 9.078125 0 
L 9.078125 75.984375 
L 18.109375 75.984375 
z
" id="DejaVuSans-98"/>
      <path d="M 64.40625 67.28125 
L 64.40625 56.890625 
Q 59.421875 61.53125 53.78125 63.8125 
Q 48.140625 66.109375 41.796875 66.109375 
Q 29.296875 66.109375 22.65625 58.46875 
Q 16.015625 50.828125 16.015625 36.375 
Q 16.015625 21.96875 22.65625 14.328125 
Q 29.296875 6.6875 41.796875 6.6875 
Q 48.140625 6.6875 53.78125 8.984375 
Q 59.421875 11.28125 64.40625 15.921875 
L 64.40625 5.609375 
Q 59.234375 2.09375 53.4375 0.328125 
Q 47.65625 -1.421875 41.21875 -1.421875 
Q 24.65625 -1.421875 15.125 8.703125 
Q 5.609375 18.84375 5.609375 36.375 
Q 5.609375 53.953125 15.125 64.078125 
Q 24.65625 74.21875 41.21875 74.21875 
Q 47.75 74.21875 53.53125 72.484375 
Q 59.328125 70.75 64.40625 67.28125 
z
" id="DejaVuSans-67"/>
      <path d="M 9.421875 75.984375 
L 18.40625 75.984375 
L 18.40625 0 
L 9.421875 0 
z
" id="DejaVuSans-108"/>
      <path d="M 48.78125 52.59375 
L 48.78125 44.1875 
Q 44.96875 46.296875 41.140625 47.34375 
Q 37.3125 48.390625 33.40625 48.390625 
Q 24.65625 48.390625 19.8125 42.84375 
Q 14.984375 37.3125 14.984375 27.296875 
Q 14.984375 17.28125 19.8125 11.734375 
Q 24.65625 6.203125 33.40625 6.203125 
Q 37.3125 6.203125 41.140625 7.25 
Q 44.96875 8.296875 48.78125 10.40625 
L 48.78125 2.09375 
Q 45.015625 0.34375 40.984375 -0.53125 
Q 36.96875 -1.421875 32.421875 -1.421875 
Q 20.0625 -1.421875 12.78125 6.34375 
Q 5.515625 14.109375 5.515625 27.296875 
Q 5.515625 40.671875 12.859375 48.328125 
Q 20.21875 56 33.015625 56 
Q 37.15625 56 41.109375 55.140625 
Q 45.0625 54.296875 48.78125 52.59375 
z
" id="DejaVuSans-99"/>
      <path d="M 54.890625 33.015625 
L 54.890625 0 
L 45.90625 0 
L 45.90625 32.71875 
Q 45.90625 40.484375 42.875 44.328125 
Q 39.84375 48.1875 33.796875 48.1875 
Q 26.515625 48.1875 22.3125 43.546875 
Q 18.109375 38.921875 18.109375 30.90625 
L 18.109375 0 
L 9.078125 0 
L 9.078125 75.984375 
L 18.109375 75.984375 
L 18.109375 46.1875 
Q 21.34375 51.125 25.703125 53.5625 
Q 30.078125 56 35.796875 56 
Q 45.21875 56 50.046875 50.171875 
Q 54.890625 44.34375 54.890625 33.015625 
z
" id="DejaVuSans-104"/>
     </defs>
     <use xlink:href="#DejaVuSans-68"/>
     <use x="77.001953" xlink:href="#DejaVuSans-80"/>
     <use x="135.054688" xlink:href="#DejaVuSans-45"/>
     <use x="171.138672" xlink:href="#DejaVuSans-100"/>
     <use x="234.615234" xlink:href="#DejaVuSans-105"/>
     <use x="262.398438" xlink:href="#DejaVuSans-115"/>
     <use x="314.498047" xlink:href="#DejaVuSans-116"/>
     <use x="353.707031" xlink:href="#DejaVuSans-114"/>
     <use x="394.820312" xlink:href="#DejaVuSans-105"/>
     <use x="422.603516" xlink:href="#DejaVuSans-98"/>
     <use x="486.080078" xlink:href="#DejaVuSans-117"/>
     <use x="549.458984" xlink:href="#DejaVuSans-116"/>
     <use x="588.667969" xlink:href="#DejaVuSans-105"/>
     <use x="616.451172" xlink:href="#DejaVuSans-111"/>
     <use x="677.632812" xlink:href="#DejaVuSans-110"/>
     <use x="741.011719" xlink:href="#DejaVuSans-45"/>
     <use x="777.095703" xlink:href="#DejaVuSans-67"/>
     <use x="846.919922" xlink:href="#DejaVuSans-111"/>
     <use x="908.101562" xlink:href="#DejaVuSans-110"/>
     <use x="971.480469" xlink:href="#DejaVuSans-45"/>
     <use x="1007.564453" xlink:href="#DejaVuSans-68"/>
     <use x="1084.566406" xlink:href="#DejaVuSans-50"/>
     <use x="1148.189453" xlink:href="#DejaVuSans-45"/>
     <use x="1184.273438" xlink:href="#DejaVuSans-97"/>
     <use x="1245.552734" xlink:href="#DejaVuSans-108"/>
     <use x="1273.335938" xlink:href="#DejaVuSans-108"/>
     <use x="1301.119141" xlink:href="#DejaVuSans-45"/>
     <use x="1337.203125" xlink:href="#DejaVuSans-99"/>
     <use x="1392.183594" xlink:href="#DejaVuSans-104"/>
     <use x="1455.5625" xlink:href="#DejaVuSans-114"/>
     <use x="1494.425781" xlink:href="#DejaVuSans-111"/>
     <use x="1555.607422" xlink:href="#DejaVuSans-109"/>
     <use x="1653.019531" xlink:href="#DejaVuSans-111"/>
     <use x="1714.201172" xlink:href="#DejaVuSans-115"/>
     <use x="1766.300781" xlink:href="#DejaVuSans-111"/>
     <use x="1827.482422" xlink:href="#DejaVuSans-109"/>
     <use x="1924.894531" xlink:href="#DejaVuSans-101"/>
     <use x="1986.417969" xlink:href="#DejaVuSans-115"/>
    </g>
   </g>
  </g>
 </g>
 <defs>
  <clipPath id="p965d8a3dae">
   <rect height="489.24" width="669.6" x="108" y="77.76"/>
  </clipPath>
 </defs>
</svg>
